<svg xmlns="http://www.w3.org/2000/svg" xmlns:xlink="http://www.w3.org/1999/xlink" width="500" zoomAndPan="magnify" viewBox="0 0 375 374.999991" height="500" preserveAspectRatio="xMidYMid meet" version="1.0"><defs><clipPath id="1627661e25"><path d="M 117 102 L 182 102 L 182 149 L 117 149 Z M 117 102 " clip-rule="nonzero"/></clipPath><clipPath id="46780d85b2"><path d="M 115.839844 76.550781 L 278.46875 70.320312 L 286.425781 277.917969 L 123.796875 284.148438 Z M 115.839844 76.550781 " clip-rule="nonzero"/></clipPath><clipPath id="02c7931de5"><path d="M 115.839844 76.550781 L 278.46875 70.320312 L 286.425781 277.917969 L 123.796875 284.148438 Z M 115.839844 76.550781 " clip-rule="nonzero"/></clipPath><clipPath id="6cd38f5aee"><path d="M 117 132 L 215 132 L 215 282 L 117 282 Z M 117 132 " clip-rule="nonzero"/></clipPath><clipPath id="9543a9b1c0"><path d="M 115.839844 76.550781 L 278.46875 70.320312 L 286.425781 277.917969 L 123.796875 284.148438 Z M 115.839844 76.550781 " clip-rule="nonzero"/></clipPath><clipPath id="1a89ecea91"><path d="M 115.839844 76.550781 L 278.46875 70.320312 L 286.425781 277.917969 L 123.796875 284.148438 Z M 115.839844 76.550781 " clip-rule="nonzero"/></clipPath><clipPath id="994f1f2542"><path d="M 209 131 L 283 131 L 283 249 L 209 249 Z M 209 131 " clip-rule="nonzero"/></clipPath><clipPath id="2a5e3cf96a"><path d="M 115.839844 76.550781 L 278.46875 70.320312 L 286.425781 277.917969 L 123.796875 284.148438 Z M 115.839844 76.550781 " clip-rule="nonzero"/></clipPath><clipPath id="9fb558004e"><path d="M 115.839844 76.550781 L 278.46875 70.320312 L 286.425781 277.917969 L 123.796875 284.148438 Z M 115.839844 76.550781 " clip-rule="nonzero"/></clipPath><clipPath id="d679c3e536"><path d="M 153 156 L 214 156 L 214 227 L 153 227 Z M 153 156 " clip-rule="nonzero"/></clipPath><clipPath id="f20bfbf6ad"><path d="M 115.839844 76.550781 L 278.46875 70.320312 L 286.425781 277.917969 L 123.796875 284.148438 Z M 115.839844 76.550781 " clip-rule="nonzero"/></clipPath><clipPath id="91d6d3fde4"><path d="M 115.839844 76.550781 L 278.46875 70.320312 L 286.425781 277.917969 L 123.796875 284.148438 Z M 115.839844 76.550781 " clip-rule="nonzero"/></clipPath><clipPath id="182b3260dc"><path d="M 165 83 L 259 83 L 259 216 L 165 216 Z M 165 83 " clip-rule="nonzero"/></clipPath><clipPath id="af2d27ab7c"><path d="M 115.839844 76.550781 L 278.46875 70.320312 L 286.425781 277.917969 L 123.796875 284.148438 Z M 115.839844 76.550781 " clip-rule="nonzero"/></clipPath><clipPath id="5556dd4c15"><path d="M 115.839844 76.550781 L 278.46875 70.320312 L 286.425781 277.917969 L 123.796875 284.148438 Z M 115.839844 76.550781 " clip-rule="nonzero"/></clipPath></defs><g clip-path="url(#1627661e25)"><g clip-path="url(#46780d85b2)"><g clip-path="url(#02c7931de5)"><path fill="#2b4bac" d="M 181.351562 146.65625 L 162.246094 106.511719 L 161.066406 105.890625 C 151.78125 100.976562 140.589844 101.40625 131.703125 107.015625 C 123.019531 112.496094 117.835938 122.117188 117.984375 132.371094 C 138.089844 132.285156 156.871094 138.410156 172.445312 148.996094 C 175.335938 147.90625 178.3125 147.125 181.351562 146.65625 " fill-opacity="1" fill-rule="nonzero"/></g></g></g><g clip-path="url(#6cd38f5aee)"><g clip-path="url(#9543a9b1c0)"><g clip-path="url(#1a89ecea91)"><path fill="#2b4bac" d="M 207.511719 231.777344 C 201.953125 234.433594 196.03125 235.902344 189.917969 236.136719 C 171.980469 236.824219 155.394531 226.773438 147.664062 210.53125 C 142.5 199.683594 141.859375 187.464844 145.859375 176.132812 C 149.859375 164.800781 158.019531 155.707031 168.839844 150.53125 C 170.027344 149.964844 171.226562 149.453125 172.445312 148.996094 C 156.871094 138.410156 138.089844 132.285156 117.984375 132.371094 C 117.988281 132.605469 117.992188 132.839844 118 133.074219 L 122.613281 253.386719 C 123.015625 263.90625 128.984375 273.414062 138.269531 278.320312 C 147.558594 283.234375 158.75 282.804688 167.632812 277.195312 L 212.917969 248.613281 C 214.316406 241.757812 214.984375 234.648438 214.851562 227.371094 C 212.570312 229.050781 210.117188 230.527344 207.511719 231.777344 " fill-opacity="1" fill-rule="nonzero"/></g></g></g><g clip-path="url(#994f1f2542)"><g clip-path="url(#2a5e3cf96a)"><g clip-path="url(#9fb558004e)"><path fill="#2b4bac" d="M 267.289062 162.0625 L 209.519531 131.515625 L 228.683594 171.777344 C 233.847656 182.625 234.492188 194.84375 230.492188 206.175781 C 227.457031 214.777344 222.023438 222.085938 214.851562 227.371094 C 214.984375 234.648438 214.316406 241.757812 212.917969 248.613281 L 269.242188 213.058594 C 278.128906 207.449219 283.351562 197.515625 282.945312 186.996094 C 282.542969 176.480469 276.574219 166.972656 267.289062 162.0625 " fill-opacity="1" fill-rule="nonzero"/></g></g></g><g clip-path="url(#d679c3e536)"><g clip-path="url(#f20bfbf6ad)"><g clip-path="url(#91d6d3fde4)"><path fill="#5adc1d" d="M 156.4375 206.335938 C 164.800781 223.914062 185.796875 231.367188 203.324219 222.984375 C 207.414062 221.023438 210.957031 218.378906 213.875 215.246094 C 210.507812 191.816406 198.832031 171.222656 182.027344 156.425781 C 178.980469 156.96875 175.953125 157.925781 173.027344 159.328125 C 155.496094 167.710938 148.070312 188.757812 156.4375 206.335938 " fill-opacity="1" fill-rule="nonzero"/></g></g></g><g clip-path="url(#182b3260dc)"><g clip-path="url(#af2d27ab7c)"><g clip-path="url(#5556dd4c15)"><path fill="#5adc1d" d="M 213.875 215.246094 C 223.457031 204.960938 226.328125 189.445312 219.914062 175.972656 L 188.582031 110.113281 C 243.300781 86.855469 258.953125 139.128906 258.953125 139.128906 C 258.953125 139.128906 258.457031 107.742188 233.34375 92.511719 C 201.632812 73.28125 165.933594 91.613281 165.933594 91.613281 L 178.785156 118.617188 L 197.058594 157.039062 C 192.21875 155.765625 187.09375 155.519531 182.027344 156.425781 C 198.832031 171.222656 210.507812 191.816406 213.875 215.246094 " fill-opacity="1" fill-rule="nonzero"/></g></g></g></svg>