<?xml version="1.0" encoding="utf-8"?>
<!-- Generator: Adobe Illustrator 24.2.0, SVG Export Plug-In . SVG Version: 6.00 Build 0)  -->
<svg version="1.1" id="Layer_1" xmlns="http://www.w3.org/2000/svg" xmlns:xlink="http://www.w3.org/1999/xlink" x="0px" y="0px"
	 viewBox="0 0 1080 396" style="enable-background:new 0 0 1080 396;" xml:space="preserve">
<style type="text/css">
	.st0{fill:#9F1D26;}
	.st1{fill:#222D45;}
</style>
<g>
	<g>
		<path class="st0" d="M49.7,7.6c11.9-3.4,25.2-3.2,36.6,1.9c9.5,4.2,17.2,11.7,22.5,20.6c4.4,7.2,6.6,15.4,9.9,23.2
			c15.3,38.6,31.7,76.8,48,115c16.5,38.6,33.2,77.1,50.1,115.6c32.5-87.4,65.3-174.8,99.7-261.5c2.5-7.1,8.1-13.3,15.5-15.3
			c7.6-2.3,15.9,0.1,22.2,4.7c4.9,3.6,7.8,9.6,7.7,15.7c0.1,3.7-1.2,7.3-2.5,10.7c-28.6,78.6-57.3,157.2-86.5,235.7
			c-8.9,23.8-17.7,47.5-26.9,71.2c-3.6,8.6-6.4,17.6-11.4,25.6c-5.7,9.4-15.3,16.3-26.1,18.5c-9.9,2-20.4,2.3-30.1-0.6
			c-7.9-2.4-14.9-7.3-20.3-13.6c-6.2-7-9.9-15.8-14-24c-17.1-36.1-32.7-72.8-48.4-109.5C78,200,60.8,158.5,44.1,116.7
			c-7.6-19.3-15.4-38.6-21.9-58.3c-3.9-11.4-2.4-24.6,4.4-34.6C32,15.8,40.5,10.3,49.7,7.6z"/>
		<path class="st0" d="M376.6,77.7c8.7-0.9,17.8-0.8,25.9,2.6c5.8,2.4,10.1,7.9,10.9,14.1c1.3,7.9,0.4,17.4-6.3,22.7
			c-7.2,5.6-16.9,6-25.6,5.8c-7.9-0.3-16.8-1.9-22.2-8.3c-5.1-6.5-5-15.8-3-23.4C358.9,82.5,368.2,78.5,376.6,77.7z"/>
		<path class="st0" d="M455,141.1c6.4-5.5,15.3-6.4,23.4-6.2c7.4,0.2,15.1,2.9,19.9,8.7c4.4,4.9,6.3,11.4,7.9,17.7
			c10-11,22.7-19.8,37.3-23.5c18.1-4.6,37.8-4.1,55.4,2.3c8.9,3.3,17.1,8.4,23.7,15.1c5.2,5.2,8.7,12,11,18.9
			c3.5,10.7,4.6,22.1,4.8,33.3c0.1,28.7,0.3,57.3,0.4,86c0.3,8.5-0.1,17.8-5.6,24.7c-5.2,6.5-13.9,8.5-21.8,8.7
			c-8.3,0.2-17.4-0.8-23.8-6.6c-6-5.5-7.6-14-7.7-21.8c0.1-25.7-0.2-51.4-0.1-77.1c0-14.6,0.3-29.7-4.6-43.7
			c-1.6-4.9-4.7-9.4-9.1-12.1c-7.6-4.7-17-5.2-25.6-4.4c-10.1,1-20,6-26.1,14.2c-6.8,8.4-8.1,19.6-8.6,30.1
			c-0.1,31.3,0,62.6-0.1,93.9c-0.1,7.9-2.1,16.7-8.7,21.8c-7.2,5.6-16.9,6.1-25.6,5.5c-7.4-0.5-15.4-3.2-19.8-9.6
			c-3.9-5.7-4.9-12.8-4.8-19.6c0-45,0-90,0-135C447,154.7,448.9,146.3,455,141.1z"/>
		<path class="st0" d="M373.9,136.2c9.8-1.8,20.8-1.9,29.6,3.3c7.8,4.8,10.4,14.4,10.5,23c0,45.4,0,90.7,0,136.1
			c0,7.8-1.7,16.3-7.6,21.8c-5.8,5.4-14.2,6.6-21.8,6.6c-7.9,0-16.5-1.4-22.3-7.2c-5.5-5.5-7-13.7-7-21.2c0-45,0-90,0-135
			c0.1-6.4,1.1-13.1,4.8-18.5C363.1,140.3,368.4,137.4,373.9,136.2z"/>
	</g>
	<g>
		<path class="st1" d="M717.9,51.2c8.1-1.8,16.7-1.7,24.5,1.2c6.6,2.5,11.7,8,14.3,14.5c4.2,10,4.2,21,4.1,31.6
			c0,61.3,0,122.7,0,184c0,10.8-0.9,22.2-7,31.4c-4.5,6.9-12.6,10.6-20.7,11.2c-9.9,0.9-21-0.6-28.1-8.3c-7.6-8.5-9.1-20.4-9.3-31.4
			c0-61.3,0-122.7,0-184c0-12.3-0.6-25.4,5.1-36.7C704.1,57.9,710.5,52.9,717.9,51.2z"/>
		<g>
			<path class="st1" d="M820.6,50.6c12.9-0.6,25.9-0.3,38.8-0.4c23,0.1,46.1-0.9,69.1,0.8c25.2,1.6,50.6,7.7,72,21.5
				c15.9,10.4,30.1,23.7,40,40c18.5,30.2,22.8,67.4,17,101.9c-5.2,31.7-20.7,62.8-46.5,82.6c-15.9,12.3-34.8,20.2-54.4,24.2
				c-18.1,4-36.7,4.3-55.1,4c-25.3,0-50.7,0-76,0c-8.3-0.2-17.2-2.5-23.3-8.5c-5.9-5.9-7.9-14.4-8-22.5c0-70,0-139.9,0-209.9
				c-0.3-8.3,0.9-17.3,6.3-24C805.3,54.3,813.1,51.5,820.6,50.6z M882.7,71.8c-4,0.3-8.1,0.8-11.9,2.3c-5,1.8-8.9,6.2-10,11.4
				c-1.7,7.9-1.5,16-1.6,24c0,47.7,0,95.3,0,143c0.1,11.4-0.5,22.8,1.3,34.1c0.8,5.9,4.5,11.2,9.8,13.8c7.4,3.7,15.9,3.6,24,3.6
				c21.8-0.1,43.9-7.5,60.4-22.1c13.3-11.9,22.8-27.6,28.5-44.4c7.3-21.8,8.9-45.3,6.2-68c-2.6-20.8-9.2-41.4-21.3-58.7
				c-10.3-14.9-25.2-26.4-42.1-32.8C912.3,72.7,897.4,71,882.7,71.8z"/>
		</g>
	</g>
</g>
</svg>
