<svg xmlns="http://www.w3.org/2000/svg" xmlns:xlink="http://www.w3.org/1999/xlink" width="500" zoomAndPan="magnify" viewBox="0 0 375 374.999991" height="500" preserveAspectRatio="xMidYMid meet" version="1.0"><defs><clipPath id="47c42a83fc"><path d="M 38.441406 47 L 154 47 L 154 134 L 38.441406 134 Z M 38.441406 47 " clip-rule="nonzero"/></clipPath><clipPath id="37f70574cd"><path d="M 38.441406 99 L 209 99 L 209 375 L 38.441406 375 Z M 38.441406 99 " clip-rule="nonzero"/></clipPath><clipPath id="6c108f9db9"><path d="M 203 104 L 336.191406 104 L 336.191406 319 L 203 319 Z M 203 104 " clip-rule="nonzero"/></clipPath></defs><g clip-path="url(#47c42a83fc)"><path fill="#ffffff" d="M 153.292969 130.28125 L 121.175781 55.667969 L 119.070312 54.453125 C 102.4375 44.835938 81.945312 44.835938 65.308594 54.453125 C 49.050781 63.851562 38.898438 81.042969 38.453125 99.773438 C 75.210938 101.019531 109.117188 113.515625 136.847656 133.925781 C 142.210938 132.144531 147.707031 130.921875 153.292969 130.28125 " fill-opacity="1" fill-rule="nonzero"/></g><g clip-path="url(#37f70574cd)"><path fill="#ffffff" d="M 195.152344 287.484375 C 184.800781 291.945312 173.878906 294.210938 162.679688 294.210938 C 129.84375 294.210938 100.230469 274.707031 87.234375 244.515625 C 78.554688 224.351562 78.234375 202.007812 86.34375 181.601562 C 94.445312 161.195312 110.003906 145.167969 130.148438 136.480469 C 132.355469 135.527344 134.589844 134.679688 136.847656 133.925781 C 109.117188 113.515625 75.210938 101.019531 38.453125 99.773438 C 38.441406 100.203125 38.429688 100.628906 38.429688 101.058594 L 38.429688 320.992188 C 38.429688 340.21875 48.675781 357.988281 65.308594 367.597656 C 81.945312 377.214844 102.4375 377.214844 119.070312 367.597656 L 203.855469 318.59375 C 206.894531 306.175781 208.617188 293.246094 208.878906 279.953125 C 204.59375 282.859375 200.007812 285.386719 195.152344 287.484375 " fill-opacity="1" fill-rule="nonzero"/></g><g clip-path="url(#6c108f9db9)"><path fill="#ffffff" d="M 309.320312 164.414062 L 205.851562 104.613281 L 238.066406 179.445312 C 246.746094 199.613281 247.0625 221.953125 238.957031 242.359375 C 232.808594 257.847656 222.359375 270.808594 208.878906 279.953125 C 208.617188 293.246094 206.894531 306.175781 203.855469 318.59375 L 309.320312 257.636719 C 325.953125 248.019531 336.199219 230.25 336.199219 211.023438 C 336.199219 191.796875 325.953125 174.03125 309.320312 164.414062 " fill-opacity="1" fill-rule="nonzero"/></g><path fill="#ffffff" d="M 103.5625 237.472656 C 117.625 270.144531 155.480469 285.214844 188.117188 271.136719 C 195.730469 267.847656 202.386719 263.269531 207.941406 257.753906 C 203.433594 214.753906 183.527344 176.347656 153.84375 148.15625 C 148.234375 148.9375 142.636719 150.476562 137.183594 152.828125 C 104.550781 166.90625 89.496094 204.804688 103.5625 237.472656 " fill-opacity="1" fill-rule="nonzero"/><path fill="#ffffff" d="M 207.941406 257.753906 C 226.1875 239.652344 232.519531 211.535156 221.738281 186.488281 L 169.070312 64.085938 C 270.734375 25.457031 295.6875 121.972656 295.6875 121.972656 C 295.6875 121.972656 296.984375 64.648438 252.136719 35.089844 C 195.515625 -2.234375 128.960938 28.730469 128.960938 28.730469 L 150.566406 78.917969 L 181.28125 150.332031 C 172.523438 147.667969 163.167969 146.863281 153.84375 148.15625 C 183.527344 176.347656 203.433594 214.753906 207.941406 257.753906 " fill-opacity="1" fill-rule="nonzero"/></svg>