<svg xmlns="http://www.w3.org/2000/svg" xmlns:xlink="http://www.w3.org/1999/xlink" width="500" zoomAndPan="magnify" viewBox="0 0 375 374.999991" height="500" preserveAspectRatio="xMidYMid meet" version="1.0"><defs><clipPath id="592656f2e6"><path d="M 127.042969 120 L 182 120 L 182 163 L 127.042969 163 Z M 127.042969 120 " clip-rule="nonzero"/></clipPath><clipPath id="f65032bd5a"><path d="M 127.042969 145 L 209 145 L 209 277 L 127.042969 277 Z M 127.042969 145 " clip-rule="nonzero"/></clipPath><clipPath id="15503a350b"><path d="M 205 148 L 268.792969 148 L 268.792969 250 L 205 250 Z M 205 148 " clip-rule="nonzero"/></clipPath></defs><g clip-path="url(#592656f2e6)"><path fill="#ffffff" d="M 181.71875 160.320312 L 166.429688 124.929688 L 165.425781 124.355469 C 157.507812 119.792969 147.753906 119.792969 139.835938 124.355469 C 132.09375 128.8125 127.261719 136.96875 127.046875 145.851562 C 144.546875 146.441406 160.6875 152.367188 173.890625 162.050781 C 176.445312 161.203125 179.0625 160.625 181.71875 160.320312 " fill-opacity="1" fill-rule="nonzero"/></g><g clip-path="url(#f65032bd5a)"><path fill="#ffffff" d="M 201.648438 234.882812 C 196.71875 237 191.519531 238.074219 186.191406 238.074219 C 170.558594 238.074219 156.457031 228.820312 150.273438 214.503906 C 146.140625 204.941406 145.988281 194.339844 149.847656 184.660156 C 153.707031 174.984375 161.113281 167.382812 170.703125 163.261719 C 171.753906 162.808594 172.816406 162.40625 173.890625 162.050781 C 160.6875 152.367188 144.546875 146.441406 127.046875 145.851562 C 127.042969 146.054688 127.039062 146.257812 127.039062 146.460938 L 127.039062 250.773438 C 127.039062 259.894531 131.914062 268.324219 139.835938 272.882812 C 147.753906 277.441406 157.507812 277.441406 165.425781 272.882812 L 205.792969 249.636719 C 207.238281 243.75 208.058594 237.617188 208.183594 231.3125 C 206.144531 232.6875 203.957031 233.886719 201.648438 234.882812 " fill-opacity="1" fill-rule="nonzero"/></g><g clip-path="url(#15503a350b)"><path fill="#ffffff" d="M 256 176.511719 L 206.742188 148.148438 L 222.078125 183.640625 C 226.210938 193.203125 226.363281 203.800781 222.503906 213.480469 C 219.574219 220.828125 214.601562 226.972656 208.183594 231.3125 C 208.058594 237.617188 207.238281 243.75 205.792969 249.636719 L 256 220.726562 C 263.917969 216.164062 268.796875 207.738281 268.796875 198.617188 C 268.796875 189.5 263.917969 181.070312 256 176.511719 " fill-opacity="1" fill-rule="nonzero"/></g><path fill="#ffffff" d="M 158.046875 211.160156 C 164.738281 226.660156 182.761719 233.804688 198.296875 227.128906 C 201.921875 225.570312 205.09375 223.398438 207.738281 220.78125 C 205.589844 200.386719 196.113281 182.171875 181.980469 168.800781 C 179.3125 169.167969 176.648438 169.898438 174.050781 171.015625 C 158.515625 177.691406 151.347656 195.667969 158.046875 211.160156 " fill-opacity="1" fill-rule="nonzero"/><path fill="#ffffff" d="M 207.738281 220.78125 C 216.421875 212.195312 219.4375 198.859375 214.304688 186.980469 L 189.230469 128.925781 C 237.632812 110.601562 249.511719 156.378906 249.511719 156.378906 C 249.511719 156.378906 250.125 129.191406 228.777344 115.171875 C 201.820312 97.46875 170.136719 112.15625 170.136719 112.15625 L 180.421875 135.960938 L 195.046875 169.832031 C 190.875 168.566406 186.421875 168.1875 181.980469 168.800781 C 196.113281 182.171875 205.589844 200.386719 207.738281 220.78125 " fill-opacity="1" fill-rule="nonzero"/></svg>