<svg xmlns="http://www.w3.org/2000/svg"  viewBox="0 0 48 48" width="96px" height="96px"><path fill="#fa91ad" d="M25.23,45.395c-9.925,0-18-8.075-18-18s8.075-18,18-18c9.925,0,18,8.075,18,18	S35.155,45.395,25.23,45.395z M25.23,12.395c-8.271,0-15,6.729-15,15s6.729,15,15,15s15-6.729,15-15S33.502,12.395,25.23,12.395z"/><path fill="#fa91ad" d="M25.23,40.395c-7.168,0-13-5.832-13-13s5.832-13,13-13c7.168,0,13,5.832,13,13	S32.398,40.395,25.23,40.395z M25.23,17.395c-5.514,0-10,4.486-10,10s4.486,10,10,10c5.514,0,10-4.486,10-10	S30.744,17.395,25.23,17.395z"/><path fill="#fa91ad" d="M5.5,27h-3C2.5,14.383,12.383,4.5,25,4.5v3C13.883,7.5,5.5,15.883,5.5,27z"/><path fill="#fa91ad" d="M20.23,26.895h-3c0-3.629,2.916-6.896,6.638-7.438l0.432,2.969	C22.018,22.758,20.23,24.721,20.23,26.895z"/><path fill="#f55376" d="M40.313,8.256c-1.113-0.942-4.589-3.35-4.595-5.061L33.218,3l-3.168,21.958	c-0.567-0.346-1.216-0.609-1.923-0.76c-2.836-0.604-5.543,0.822-6.046,3.186c-0.503,2.363,1.388,4.769,4.224,5.372	c2.836,0.604,5.543-0.822,6.046-3.186l3.046-21.078c3.823,0.723,6.333,2.748,5.023,7.02C42.561,12.991,43,10.53,40.313,8.256z"/><path fill="#eb0000" d="M31.353,15.933l-0.465,3.225c1.015,0.7,1.896,1.58,2.593,2.597l0.562-3.89	C33.232,17.115,32.334,16.459,31.353,15.933z"/><path fill="#eb0000" d="M31.652,13.859c0.971,0.463,1.885,1.024,2.728,1.676l0.48-3.322c-0.875-0.557-1.793-1.049-2.761-1.45	L31.652,13.859z"/></svg>